<?xml version="1.0" standalone="no"?>
<!DOCTYPE svg PUBLIC "-//W3C//DTD SVG 20010904//EN"
 "http://www.w3.org/TR/2001/REC-SVG-20010904/DTD/svg10.dtd">
<svg version="1.0" xmlns="http://www.w3.org/2000/svg"
 width="376.000000pt" height="414.000000pt" viewBox="0 0 376.000000 414.000000"
 preserveAspectRatio="xMidYMid meet">

<g transform="translate(0.000000,414.000000) scale(0.100000,-0.100000)"
fill="#000000" stroke="none">
<path d="M1525 3933 c-11 -2 -51 -16 -88 -30 -44 -16 -93 -26 -135 -28 -49 -1
-83 -9 -124 -29 -71 -34 -101 -88 -100 -182 l0 -60 -41 -21 c-23 -12 -76 -29
-117 -38 -41 -9 -107 -32 -147 -51 -120 -57 -220 -184 -277 -352 -13 -37 -42
-98 -65 -136 -75 -122 -96 -181 -122 -344 -12 -79 -2 -184 26 -280 8 -26 19
-106 24 -177 10 -126 36 -274 67 -385 27 -92 94 -210 120 -210 7 0 15 -14 19
-30 6 -27 15 -34 37 -31 3 0 11 -22 17 -49 6 -27 20 -75 31 -107 20 -57 19
-76 -2 -55 -23 23 -29 11 -22 -46 9 -79 -16 -173 -61 -231 -19 -24 -35 -50
-35 -57 0 -23 49 -52 117 -68 38 -9 97 -26 133 -36 36 -11 85 -24 110 -29 35
-8 52 -19 79 -53 19 -24 75 -84 125 -133 228 -225 406 -311 671 -322 314 -13
522 76 779 333 56 56 129 141 163 190 78 113 91 127 109 120 8 -3 56 -8 107
-12 79 -5 97 -3 127 14 51 28 50 53 -4 110 -75 80 -81 162 -24 327 20 55 41
126 48 157 9 39 18 58 30 61 27 7 85 93 108 161 21 61 27 90 57 281 9 55 20
102 26 104 18 6 59 55 59 72 0 9 -10 20 -22 26 -21 9 -22 14 -19 144 3 178
-21 320 -83 491 -60 165 -125 282 -250 446 -39 52 -87 117 -106 145 -49 71
-114 118 -265 192 -192 94 -388 145 -555 145 -55 0 -90 6 -122 20 -85 37 -318
62 -403 43z m-365 -1245 c0 -10 37 -54 74 -90 39 -39 63 -37 68 6 2 19 0 32
-4 30 -4 -3 -8 6 -8 19 0 13 -3 27 -7 31 -4 3 -8 13 -9 22 -2 12 1 13 12 3 8
-6 14 -20 14 -30 0 -11 6 -18 13 -16 6 1 11 -6 11 -15 -1 -10 2 -16 6 -15 9 2
60 -69 60 -84 0 -6 4 -7 10 -4 5 3 7 0 5 -7 -3 -8 2 -23 12 -33 10 -11 31 -38
48 -60 40 -54 51 -65 60 -57 4 4 6 2 5 -3 -5 -25 1 -45 15 -45 8 0 15 -6 15
-14 0 -11 36 -47 160 -161 8 -7 47 -32 85 -54 68 -40 135 -55 135 -30 0 19
-55 89 -70 89 -13 0 -13 2 -1 9 13 8 13 12 0 27 -12 15 -12 16 7 10 35 -11 94
-10 106 2 10 10 -14 62 -45 95 -32 33 -119 157 -111 157 2 0 0 9 -6 20 -6 11
-8 20 -6 20 3 0 13 -14 21 -30 9 -17 20 -28 26 -25 5 4 8 2 7 -3 -2 -6 1 -10
6 -10 4 0 19 -17 33 -37 14 -20 27 -34 30 -31 3 2 15 -5 27 -18 24 -25 78 -61
117 -76 24 -10 26 -15 22 -49 -7 -48 10 -81 42 -81 13 0 49 6 79 14 49 13 59
13 83 0 16 -7 24 -14 18 -14 -5 0 -3 -5 5 -10 12 -8 10 -10 -8 -10 -33 0 -129
-29 -177 -52 -22 -11 -62 -38 -89 -61 l-48 -40 -56 18 c-86 27 -158 30 -232
10 -112 -30 -107 -30 -147 7 -55 48 -99 73 -178 99 -61 21 -90 24 -225 24
-140 -1 -165 -3 -254 -29 -119 -34 -146 -39 -146 -28 0 21 32 112 39 112 7 0
31 41 37 65 10 39 63 167 64 153 0 -24 32 -23 53 0 9 10 22 33 28 50 10 30 29
44 29 22 0 -5 -4 -10 -8 -10 -9 0 -32 -102 -25 -110 9 -9 20 23 15 43 -3 14
-1 18 6 13 8 -5 12 2 12 18 0 14 5 26 11 26 5 0 7 4 4 10 -3 5 1 30 10 56 8
25 16 66 17 90 1 24 6 44 11 44 5 0 6 10 3 23 -3 12 -3 17 0 10 6 -13 12 -9
47 23 9 8 15 7 24 -5 7 -9 13 -19 13 -23z m228 -641 c88 -31 131 -58 163 -105
22 -32 24 -46 24 -146 0 -91 -4 -122 -23 -171 -49 -127 -109 -196 -211 -243
-48 -22 -70 -26 -151 -26 -117 -1 -180 6 -172 18 3 5 -2 6 -12 3 -10 -4 -15
-3 -11 3 6 10 -9 15 -30 10 -5 -1 -7 1 -4 4 3 3 -22 34 -56 69 -82 83 -107
147 -113 280 -8 190 47 288 182 321 44 11 101 15 201 12 120 -2 150 -6 213
-29z m1157 23 c14 -6 15 -9 5 -10 -26 -1 8 -15 87 -35 40 -10 70 -22 67 -27
-5 -8 0 -10 29 -12 6 -1 17 -8 24 -16 9 -11 12 -12 13 -2 0 7 4 11 9 7 20 -12
41 -69 52 -144 21 -139 -23 -281 -117 -377 -26 -27 -47 -53 -46 -57 2 -5 -2
-6 -8 -2 -6 4 -30 -4 -53 -18 -39 -21 -55 -24 -158 -23 -102 1 -120 4 -171 28
-71 33 -146 106 -177 172 -42 90 -63 193 -57 274 7 85 15 105 66 152 64 60
191 98 330 98 47 0 94 -3 105 -8z m-594 -134 l34 -16 0 -107 c1 -262 129 -447
345 -499 145 -35 288 -2 406 92 23 18 45 30 49 26 3 -4 5 -2 4 3 -4 15 58 108
65 97 3 -5 0 -22 -8 -38 -18 -38 -30 -105 -16 -84 8 11 9 4 4 -25 -4 -22 -7
-46 -7 -52 0 -7 -4 -13 -9 -13 -5 0 -6 -5 -3 -10 7 -11 -31 -97 -52 -118 -7
-7 -13 -17 -13 -22 0 -4 -26 -35 -57 -67 -77 -79 -171 -129 -308 -163 -27 -7
-63 -20 -80 -28 -36 -17 -95 -71 -95 -87 0 -6 -13 -32 -29 -58 -33 -52 -91
-87 -143 -87 -31 0 -48 8 -112 54 -66 47 -178 40 -247 -16 -35 -28 -49 -33
-93 -33 -73 1 -119 32 -156 104 -54 103 -74 118 -210 156 -171 48 -279 121
-355 239 -41 65 -79 161 -71 181 3 8 1 15 -5 15 -6 0 -8 9 -4 21 6 16 4 20 -6
14 -8 -5 -11 -5 -8 -1 3 3 0 32 -7 63 -18 77 -5 96 26 41 34 -61 122 -143 183
-173 79 -37 194 -51 287 -36 205 34 323 166 381 425 10 46 10 70 1 114 -14 66
-8 76 57 97 59 19 203 14 252 -9z m919 -371 c0 -8 -4 -15 -10 -15 -5 0 -7 7
-4 15 4 8 8 15 10 15 2 0 4 -7 4 -15z m-10 -116 c0 -5 -4 -9 -10 -9 -5 0 -10
7 -10 16 0 8 5 12 10 9 6 -3 10 -10 10 -16z m-235 -79 c-3 -5 -12 -10 -18 -10
-7 0 -6 4 3 10 19 12 23 12 15 0z"/>
<path d="M1122 2305 c-78 -17 -158 -54 -194 -88 -32 -30 -34 -40 -13 -61 18
-17 29 -16 110 14 41 15 93 24 162 27 92 5 110 3 183 -21 97 -33 130 -31 148
6 18 37 2 63 -51 87 -103 46 -241 60 -345 36z"/>
<path d="M1342 2043 c-13 -3 -19 -9 -16 -15 5 -7 -2 -9 -20 -4 -15 4 -44 2
-64 -5 -20 -6 -53 -15 -72 -21 -107 -31 -203 -128 -216 -218 l-6 -45 29 47
c33 54 91 120 128 144 l26 17 -25 -48 c-29 -54 -33 -109 -12 -160 17 -40 19
-41 40 -19 14 14 20 13 59 -10 59 -35 104 -34 155 3 22 17 43 39 47 50 7 25
25 28 25 5 0 -8 5 -12 10 -9 7 4 9 -3 5 -22 -5 -20 -4 -24 4 -13 5 8 13 35 16
60 8 62 -16 120 -69 167 l-41 36 44 -24 c51 -28 98 -80 130 -144 13 -25 25
-44 27 -42 7 7 -18 70 -39 101 -12 16 -16 26 -10 23 7 -4 5 7 -4 24 -13 26
-13 33 -2 41 11 8 10 8 -4 4 -13 -4 -20 0 -24 14 -3 11 -9 20 -14 20 -5 0 -6
-8 -3 -17 5 -14 4 -15 -4 -4 -6 8 -8 20 -5 27 3 8 -10 14 -36 19 -23 4 -39 11
-35 16 3 5 4 8 2 8 -2 -1 -13 -4 -26 -6z m-104 -164 c5 -27 -23 -52 -51 -45
-37 9 -46 45 -17 68 20 16 25 17 44 5 12 -8 22 -21 24 -28z"/>
<path d="M1120 1690 c0 -5 5 -10 10 -10 6 0 10 5 10 10 0 6 -4 10 -10 10 -5 0
-10 -4 -10 -10z"/>
<path d="M2257 2036 c-9 -10 -23 -13 -33 -9 -11 4 -15 2 -11 -4 4 -5 -5 -15
-18 -21 -14 -7 -25 -16 -25 -22 0 -6 -5 -8 -12 -4 -7 5 -8 3 -3 -6 4 -7 4 -15
-1 -19 -5 -3 -17 -23 -27 -44 -9 -21 -21 -36 -25 -33 -4 2 -8 -6 -9 -17 -1
-12 -4 -35 -8 -52 -6 -26 -3 -24 22 16 34 56 79 109 113 132 40 28 43 19 5
-17 -43 -42 -55 -72 -55 -139 0 -60 35 -132 51 -106 5 8 9 19 9 24 0 6 -5 3
-10 -5 -8 -13 -10 -13 -10 1 0 28 11 28 50 3 55 -37 110 -42 154 -15 19 12 44
34 54 49 17 23 22 24 36 13 10 -9 14 -22 11 -35 -6 -21 -6 -21 10 -1 13 15 16
36 13 86 -3 55 -9 73 -33 104 -16 21 -22 35 -14 30 47 -27 104 -84 141 -141
23 -37 44 -62 45 -57 8 24 -42 127 -80 166 -22 23 -40 46 -39 50 2 5 -2 6 -7
3 -5 -3 -30 3 -55 15 -61 27 -156 51 -173 44 -8 -2 -11 0 -8 5 3 6 2 10 -4 10
-5 0 -16 3 -24 6 -8 3 -21 -2 -30 -10z m33 -6 c0 -5 -2 -10 -4 -10 -3 0 -8 5
-11 10 -3 6 -1 10 4 10 6 0 11 -4 11 -10z m12 -127 c36 -33 11 -81 -37 -69
-29 7 -34 45 -9 70 19 20 23 20 46 -1z"/>
<path d="M767 1515 c3 -16 10 -41 14 -55 7 -24 7 -24 8 5 0 17 -6 41 -14 55
l-15 25 7 -30z"/>
<path d="M1617 1320 c-21 -75 10 -146 74 -176 59 -26 188 -26 243 1 63 31 90
97 69 174 -5 20 -8 16 -20 -30 -15 -63 -45 -93 -106 -110 -49 -13 -136 -5
-178 17 -30 15 -50 49 -66 114 -9 34 -9 34 -16 10z"/>
<path d="M1670 1100 c-25 -5 -91 -15 -148 -24 -121 -20 -152 -30 -152 -51 0
-25 27 -29 129 -15 53 6 135 16 183 20 97 9 108 13 108 40 0 36 -35 45 -120
30z"/>
<path d="M1845 1094 c-9 -9 -14 -21 -12 -28 6 -19 50 -36 97 -36 25 0 90 -7
145 -15 55 -8 117 -15 138 -15 33 0 37 3 37 24 0 28 9 25 -205 61 -178 30
-179 30 -200 9z"/>
<path d="M1452 959 c29 -16 180 -42 283 -48 123 -7 223 0 341 24 103 21 113
33 21 23 -66 -7 -496 -3 -610 5 -27 2 -43 0 -35 -4z"/>
<path d="M1693 803 c9 -2 23 -2 30 0 6 3 -1 5 -18 5 -16 0 -22 -2 -12 -5z"/>
<path d="M1865 800 c-27 -7 -28 -8 -5 -8 14 0 34 3 45 8 25 11 2 11 -40 0z"/>
<path d="M1768 793 c7 -3 16 -2 19 1 4 3 -2 6 -13 5 -11 0 -14 -3 -6 -6z"/>
</g>
</svg>
